<svg id="svg" version="1.1" xmlns="http://www.w3.org/2000/svg" xmlns:xlink="http://www.w3.org/1999/xlink" width="400" height="360" viewBox="0, 0, 400,360"><g id="svgg"><path id="path0" d="M14.568 14.851 C 14.260 15.659,14.573 346.646,14.881 346.955 C 15.046 347.120,20.150 347.216,26.222 347.168 C 32.295 347.120,54.266 346.996,75.046 346.891 C 109.363 346.719,112.889 346.648,113.480 346.112 C 114.520 345.171,114.478 324.963,113.435 324.405 C 112.968 324.155,100.483 324.032,75.507 324.032 C 39.895 324.032,38.250 324.004,37.680 323.374 C 36.898 322.511,36.765 39.509,37.545 38.493 C 38.633 37.076,38.407 37.084,76.471 37.084 C 112.599 37.084,113.394 37.069,113.759 36.387 C 114.426 35.140,114.251 15.652,113.566 14.967 C 112.802 14.203,14.858 14.089,14.568 14.851 M262.582 14.845 C 262.104 15.583,261.991 34.171,262.455 35.734 L 262.855 37.084 312.145 37.084 L 361.435 37.084 361.996 37.884 C 362.800 39.032,362.861 322.971,362.057 323.638 C 361.686 323.946,348.927 324.049,312.325 324.038 C 276.080 324.026,262.962 324.130,262.599 324.432 C 261.924 324.992,261.876 344.376,262.546 345.845 L 262.985 346.810 323.176 346.648 C 379.107 346.496,383.432 346.441,384.302 345.871 L 385.239 345.258 385.239 180.619 C 385.239 39.003,385.167 15.881,384.728 15.280 C 384.078 14.392,263.154 13.960,262.582 14.845 M140.504 114.761 C 144.019 114.820,149.770 114.820,153.285 114.761 C 156.800 114.702,153.924 114.654,146.895 114.654 C 139.865 114.654,136.989 114.702,140.504 114.761 M197.413 114.761 C 201.139 114.820,207.134 114.820,210.735 114.761 C 214.336 114.702,211.287 114.654,203.960 114.654 C 196.634 114.654,193.687 114.703,197.413 114.761 M162.119 118.632 C 162.122 119.622,162.192 119.984,162.275 119.437 C 162.357 118.890,162.355 118.080,162.270 117.637 C 162.184 117.194,162.116 117.642,162.119 118.632 M162.190 159.316 C 162.190 180.108,162.233 188.561,162.286 178.100 C 162.339 167.640,162.339 150.628,162.286 140.296 C 162.233 129.965,162.190 138.524,162.190 159.316 M131.144 197.120 C 131.148 197.912,131.222 198.193,131.308 197.746 C 131.394 197.298,131.391 196.650,131.300 196.305 C 131.210 195.961,131.140 196.328,131.144 197.120 M279.548 230.243 C 279.548 236.382,279.597 238.944,279.657 235.936 C 279.717 232.929,279.717 227.906,279.657 224.775 C 279.597 221.644,279.548 224.104,279.548 230.243 " stroke="none" fill="#0ea55e" fill-rule="evenodd"></path><path id="path1" d="M131.831 115.769 C 131.522 116.447,131.413 127.307,131.413 157.553 C 131.413 184.543,131.283 199.301,131.031 201.011 C 130.820 202.435,130.506 204.520,130.333 205.644 C 129.647 210.100,127.407 213.151,123.257 215.281 C 119.004 217.464,99.152 217.599,92.703 215.489 C 89.314 214.379,85.492 214.109,84.960 214.941 C 84.752 215.266,84.649 220.219,84.701 227.348 L 84.788 239.215 86.949 239.867 C 88.137 240.226,89.613 240.756,90.228 241.044 C 90.844 241.333,92.545 241.670,94.009 241.793 C 95.472 241.915,98.128 242.364,99.910 242.790 C 104.408 243.865,125.027 243.972,127.993 242.935 C 128.983 242.589,131.170 242.136,132.853 241.928 C 134.536 241.720,136.507 241.244,137.232 240.869 C 137.956 240.495,139.215 240.010,140.029 239.791 C 140.843 239.572,142.095 238.994,142.812 238.508 C 143.529 238.022,144.324 237.624,144.579 237.624 C 144.834 237.624,145.257 237.414,145.519 237.157 C 145.781 236.900,146.755 236.169,147.684 235.533 C 154.268 231.028,158.580 222.497,161.367 208.461 C 161.789 206.332,162.239 118.201,161.839 116.022 L 161.624 114.851 146.936 114.851 L 132.249 114.851 131.831 115.769 M187.996 116.243 C 187.687 117.275,187.579 133.643,187.579 179.423 L 187.579 241.210 188.569 241.487 C 190.137 241.926,278.563 241.834,279.003 241.393 C 279.829 240.567,279.522 216.716,278.675 215.868 C 277.935 215.128,277.671 215.120,248.993 214.941 C 221.180 214.768,220.028 214.735,219.300 214.076 L 218.542 213.390 218.542 165.254 C 218.542 131.233,218.426 116.787,218.147 115.985 L 217.751 114.851 203.082 114.851 L 188.413 114.851 187.996 116.243 M300.810 217.827 C 289.226 219.255,286.051 235.472,295.964 242.585 C 299.700 245.266,309.297 245.182,313.295 242.433 C 318.989 238.517,320.596 230.554,316.988 224.122 C 313.910 218.634,309.183 216.794,300.810 217.827 " stroke="none" fill="#314047" fill-rule="evenodd"></path></g></svg>